<svg id="Layer_1" data-name="Layer 1" xmlns="http://www.w3.org/2000/svg" viewBox="0 0 2511.49 632.6"><defs><style>.cls-1{fill:#5d7df9;}</style></defs><title>logo</title><text x="-232.82" y="-1267.95"/><path d="M682,1690.63v-270h53.69v33h2.43a72.29,72.29,0,0,1,10.42-16.18,55,55,0,0,1,17.9-13.8q11.05-5.57,27.55-5.56a74.17,74.17,0,0,1,39.63,11.18q18.15,11.19,29,33.62t10.87,56.19q0,32.87-10.55,55.42t-28.64,34.13a73.46,73.46,0,0,1-40.46,11.57q-15.86,0-26.91-5.24a55.09,55.09,0,0,1-18.09-13.23,65.8,65.8,0,0,1-10.74-16.17h-1.66v105.08Zm53.31-171.81q0,17.51,4.86,30.55t14.06,20.26q9.21,7.23,22.37,7.23t22.5-7.36q9.21-7.35,14-20.45t4.8-30.23q0-17-4.73-29.92t-13.94-20.2q-9.21-7.29-22.63-7.28t-22.43,7q-9.15,7-14,19.94T735.3,1518.82Z" transform="translate(-232.82 -1267.95)"/><path d="M999.16,1620.83q-30.3,0-52.1-12.33a83.45,83.45,0,0,1-33.55-35q-11.78-22.7-11.77-53.76,0-30.3,11.77-53.18a86.73,86.73,0,0,1,33.17-35.67q21.42-12.78,50.31-12.78a103.79,103.79,0,0,1,36.24,6.2,81.61,81.61,0,0,1,29.4,18.6q12.6,12.4,19.63,31.13t7,43.78v15H923.48V1499H1038a41.71,41.71,0,0,0-5.11-20.84,37.2,37.2,0,0,0-14.13-14.25,41.22,41.22,0,0,0-20.9-5.18,41.9,41.9,0,0,0-21.92,5.69,40.79,40.79,0,0,0-14.9,15.21,43.29,43.29,0,0,0-5.49,21.16v32.09q0,14.56,5.43,25.18a38.92,38.92,0,0,0,15.4,16.37q10,5.74,23.65,5.75a51.37,51.37,0,0,0,16.62-2.56,34.33,34.33,0,0,0,12.91-7.67,33.26,33.26,0,0,0,8.19-12.53l50.37,3.33a68.73,68.73,0,0,1-15.66,31.64q-11.84,13.48-30.43,21T999.16,1620.83Z" transform="translate(-232.82 -1267.95)"/><path d="M1179.29,1503.47V1617h-54.46V1420.63h51.9v34.65h2.3a55.18,55.18,0,0,1,21.86-27.17q15.34-10,37.2-10,20.46,0,35.67,9a60.83,60.83,0,0,1,23.65,25.5q8.44,16.56,8.44,39.44v125h-54.46V1501.68q.12-18-9.21-28.18t-25.69-10.17a38.74,38.74,0,0,0-19.37,4.73,32.59,32.59,0,0,0-13,13.75Q1179.42,1490.81,1179.29,1503.47Z" transform="translate(-232.82 -1267.95)"/><path d="M1512.05,1476.63l-49.85,3.07a26.33,26.33,0,0,0-5.5-11.57,30.09,30.09,0,0,0-11.06-8.31,38.85,38.85,0,0,0-16.3-3.14q-12.66,0-21.35,5.31t-8.69,14.13a15.14,15.14,0,0,0,5.62,11.89q5.63,4.86,19.31,7.79l35.54,7.16q28.63,5.88,42.7,18.92t14.06,34.27a53.62,53.62,0,0,1-11.32,33.87q-11.31,14.58-30.93,22.69t-45.2,8.12q-39,0-62.06-16.3t-27-44.42l53.57-2.81q2.42,11.88,11.76,18.08t23.9,6.2q14.32,0,23.08-5.56t8.88-14.38a15.2,15.2,0,0,0-6.26-12.21q-6.14-4.79-18.92-7.35l-34-6.77q-28.76-5.76-42.76-20t-14-36.18q0-18.92,10.29-32.6t29-21.09q18.73-7.41,43.92-7.41,37.2,0,58.61,15.72T1512.05,1476.63Z" transform="translate(-232.82 -1267.95)"/><path d="M1639.64,1620.83q-29.79,0-51.46-12.72a86,86,0,0,1-33.43-35.54q-11.76-22.82-11.76-53,0-30.42,11.76-53.24a86,86,0,0,1,33.43-35.54q21.67-12.72,51.46-12.72t51.45,12.72a85.89,85.89,0,0,1,33.43,35.54q11.76,22.82,11.77,53.24,0,30.18-11.77,53a85.89,85.89,0,0,1-33.43,35.54Q1669.43,1620.83,1639.64,1620.83Zm.25-42.18q13.56,0,22.63-7.74t13.74-21.16a102.26,102.26,0,0,0,0-61.1q-4.66-13.43-13.74-21.23t-22.63-7.79q-13.68,0-22.94,7.79T1603,1488.65a102.26,102.26,0,0,0,0,61.1q4.66,13.43,13.94,21.16T1639.89,1578.65Z" transform="translate(-232.82 -1267.95)"/><path d="M1897.75,1533.39V1420.63h54.46V1617h-52.29v-35.67h-2.05a58.12,58.12,0,0,1-22,27.74q-15.4,10.48-37.52,10.48-19.69,0-34.64-8.94a61.17,61.17,0,0,1-23.34-25.44q-8.37-16.5-8.5-39.51v-125h54.46V1536q.13,17.38,9.34,27.48t24.67,10.1a38.69,38.69,0,0,0,18.41-4.54,35.11,35.11,0,0,0,13.87-13.48Q1897.86,1546.55,1897.75,1533.39Z" transform="translate(-232.82 -1267.95)"/><path d="M1995.67,1617V1420.63h52.8v34.27h2q5.37-18.29,18-27.68a47.56,47.56,0,0,1,29.15-9.4,82.78,82.78,0,0,1,8.82.51,61.58,61.58,0,0,1,8.31,1.41v48.32a71.58,71.58,0,0,0-10.61-2,94.82,94.82,0,0,0-12.4-.9,43.67,43.67,0,0,0-21.42,5.18,38.52,38.52,0,0,0-14.83,14.38,41,41,0,0,0-5.43,21.22V1617Z" transform="translate(-232.82 -1267.95)"/><path d="M2222.33,1620.83q-30.18,0-51.84-12.85a85.36,85.36,0,0,1-33.24-35.73q-11.57-22.87-11.57-52.67,0-30.16,11.7-53a86.59,86.59,0,0,1,33.3-35.67q21.6-12.84,51.39-12.84,25.69,0,45,9.33a75.23,75.23,0,0,1,30.56,26.21q11.25,16.88,12.4,39.63h-51.39q-2.17-14.7-11.45-23.72t-24.22-9a36.44,36.44,0,0,0-22,6.84q-9.4,6.84-14.64,19.88t-5.24,31.58q0,18.78,5.17,32t14.64,20.07a38.86,38.86,0,0,0,38.93,3.07,32.79,32.79,0,0,0,12.4-11.19,42.71,42.71,0,0,0,6.46-17.71H2310q-1.28,22.5-12.21,39.57a74.38,74.38,0,0,1-30.11,26.65Q2248.54,1620.84,2222.33,1620.83Z" transform="translate(-232.82 -1267.95)"/><path d="M2434.55,1620.83q-30.3,0-52.1-12.33a83.48,83.48,0,0,1-33.56-35q-11.76-22.7-11.76-53.76,0-30.3,11.76-53.18a86.75,86.75,0,0,1,33.18-35.67q21.41-12.78,50.3-12.78a103.81,103.81,0,0,1,36.25,6.2,81.69,81.69,0,0,1,29.4,18.6q12.58,12.4,19.62,31.13t7,43.78v15H2358.86V1499h114.55a41.82,41.82,0,0,0-5.11-20.84,37.2,37.2,0,0,0-14.13-14.25,41.25,41.25,0,0,0-20.9-5.18,42,42,0,0,0-21.93,5.69,40.76,40.76,0,0,0-14.89,15.21,43.41,43.41,0,0,0-5.5,21.16v32.09q0,14.56,5.44,25.18a38.86,38.86,0,0,0,15.4,16.37q10,5.74,23.65,5.75a51.37,51.37,0,0,0,16.62-2.56A34.4,34.4,0,0,0,2465,1570a33.24,33.24,0,0,0,8.18-12.53l50.37,3.33a68.53,68.53,0,0,1-15.66,31.64q-11.82,13.48-30.42,21T2434.55,1620.83Z" transform="translate(-232.82 -1267.95)"/><path d="M2632.57,1620.19a73.46,73.46,0,0,1-40.46-11.57q-18.09-11.56-28.64-34.13t-10.54-55.42q0-33.75,10.86-56.19t29-33.62a74.07,74.07,0,0,1,39.69-11.18q16.5,0,27.55,5.56a55,55,0,0,1,17.9,13.8,72.29,72.29,0,0,1,10.42,16.18H2690v-98.44h54.33V1617h-53.69v-31.45h-2.3a70.39,70.39,0,0,1-10.8,16.17,54.41,54.41,0,0,1-18,13.23Q2648.43,1620.2,2632.57,1620.19Zm17.26-43.33q13.17,0,22.31-7.23t14.06-20.26q4.92-13,4.92-30.55t-4.86-30.43q-4.86-12.92-14.06-19.94t-22.37-7q-13.42,0-22.63,7.28t-13.93,20.2q-4.74,12.91-4.73,29.92t4.79,30.23q4.8,13.11,13.94,20.45T2649.83,1576.86Z" transform="translate(-232.82 -1267.95)"/><path class="cls-1" d="M647.82,1475.45c0,114.6-92.9,207.5-207.5,207.5s-207.5-92.9-207.5-207.5,92.9-207.5,207.5-207.5S647.82,1360.85,647.82,1475.45ZM440.32,1325a150.5,150.5,0,1,0,150.5,150.5A150.5,150.5,0,0,0,440.32,1325Z" transform="translate(-232.82 -1267.95)"/></svg>